<?xml version="1.0" encoding="UTF-8"?>
<svg width="488px" height="387px" viewBox="0 0 488 387" version="1.1" xmlns="http://www.w3.org/2000/svg" xmlns:xlink="http://www.w3.org/1999/xlink">
    <!-- Generator: Sketch 51.3 (57544) - http://www.bohemiancoding.com/sketch -->
    <title>Land_World_Logo</title>
    <desc>Created with Sketch.</desc>
    <defs>
        <linearGradient x1="50%" y1="0%" x2="50%" y2="100%" id="linearGradient-1">
            <stop stop-color="#3BD23D" offset="0%"></stop>
            <stop stop-color="#34CC4D" offset="9%"></stop>
            <stop stop-color="#1EB784" offset="39%"></stop>
            <stop stop-color="#0EA8AC" offset="66%"></stop>
            <stop stop-color="#049FC4" offset="87%"></stop>
            <stop stop-color="#009CCD" offset="100%"></stop>
        </linearGradient>
    </defs>
    <g id="Page-1" stroke="none" stroke-width="1" fill="none" fill-rule="evenodd">
        <g id="Land_World_Logo" fill-rule="nonzero">
            <g id="rects" transform="translate(4.000000, 2.000000)" fill="#000000">
                <rect id="Rectangle-path" x="55.84" y="0.71" width="10.53" height="73.68"></rect>
                <rect id="Rectangle-path" transform="translate(96.625000, 90.185000) rotate(90.000000) translate(-96.625000, -90.185000) " x="91.36" y="70.45" width="10.53" height="39.47"></rect>
                <rect id="Rectangle-path" transform="translate(165.463975, 31.761505) rotate(-60.000000) translate(-165.463975, -31.761505) " x="151.478975" y="26.4965049" width="27.97" height="10.53"></rect>
                <rect id="Rectangle-path" transform="translate(135.684905, 83.336741) rotate(-60.000000) translate(-135.684905, -83.336741) " x="121.699905" y="78.0717415" width="27.97" height="10.53"></rect>
                <rect id="Rectangle-path" transform="translate(195.238732, 31.750315) rotate(-30.000000) translate(-195.238732, -31.750315) " x="189.973732" y="17.7653145" width="10.53" height="27.97"></rect>
                <rect id="Rectangle-path" transform="translate(225.020308, 83.334905) rotate(-30.000000) translate(-225.020308, -83.334905) " x="219.755308" y="69.3499049" width="10.53" height="27.97"></rect>
                <rect id="Rectangle-path" x="166.36" y="52.28" width="27.97" height="10.53"></rect>
                <rect id="Rectangle-path" x="246.97" y="21.76" width="10.53" height="73.68"></rect>
                <rect id="Rectangle-path" transform="translate(294.335679, 48.072133) rotate(-45.000000) translate(-294.335679, -48.072133) " x="289.070679" y="4.31713334" width="10.53" height="87.51"></rect>
                <rect id="Rectangle-path" x="331.18" y="0.71" width="10.53" height="73.68"></rect>
                <rect id="Rectangle-path" transform="translate(404.489014, 27.024113) rotate(-60.000000) translate(-404.489014, -27.024113) " x="399.224014" y="0.709112935" width="10.53" height="52.63"></rect>
                <rect id="Rectangle-path" x="362.76" y="21.76" width="10.53" height="52.63"></rect>
                <rect id="Rectangle-path" transform="translate(406.109450, 69.434950) rotate(-29.886527) translate(-406.109450, -69.434950) " x="379.703819" y="64.151817" width="52.8112614" height="10.566266"></rect>
                <rect id="Rectangle-path" transform="translate(69.462335, 311.962813) rotate(-25.000000) translate(-69.462335, -311.962813) " x="64.1973354" y="296.617813" width="10.53" height="30.69"></rect>
                <rect id="Rectangle-path" transform="translate(43.144801, 311.972553) rotate(-65.000000) translate(-43.144801, -311.972553) " x="27.7998012" y="306.707553" width="30.69" height="10.53"></rect>
                <rect id="Rectangle-path" transform="translate(16.219250, 288.362750) rotate(-15.004920) translate(-16.219250, -288.362750) " x="10.9319211" y="249.122033" width="10.5746578" height="78.4814347"></rect>
                <rect id="Rectangle-path" transform="translate(96.826319, 287.181209) rotate(-75.000000) translate(-96.826319, -287.181209) " x="57.7513194" y="281.916209" width="78.15" height="10.53"></rect>
                <rect id="Rectangle-path" transform="translate(143.156382, 355.967786) rotate(-45.000000) translate(-143.156382, -355.967786) " x="137.891382" y="341.982786" width="10.53" height="27.97"></rect>
                <rect id="Rectangle-path" transform="translate(143.151410, 313.877187) rotate(45.000000) translate(-143.151410, -313.877187) " x="137.88641" y="299.892187" width="10.53" height="27.97"></rect>
                <rect id="Rectangle-path" transform="translate(185.251410, 355.975578) rotate(45.000000) translate(-185.251410, -355.975578) " x="179.98641" y="341.990578" width="10.53" height="27.97"></rect>
                <rect id="Rectangle-path" transform="translate(185.256382, 313.869395) rotate(-45.000000) translate(-185.256382, -313.869395) " x="179.991382" y="299.884395" width="10.53" height="27.97"></rect>
                <rect id="Rectangle-path" transform="translate(263.476938, 332.295881) rotate(-25.000000) translate(-263.476938, -332.295881) " x="248.131938" y="327.030881" width="30.69" height="10.53"></rect>
                <rect id="Rectangle-path" transform="translate(263.471499, 305.974275) rotate(-65.000000) translate(-263.471499, -305.974275) " x="258.206499" y="290.629275" width="10.53" height="30.69"></rect>
                <rect id="Rectangle-path" x="229.99" y="308.61" width="10.53" height="21.05"></rect>
                <rect id="Rectangle-path" x="229.99" y="361.24" width="10.53" height="21.05"></rect>
                <rect id="Rectangle-path" transform="translate(273.817000, 365.743550) rotate(-60.113473) translate(-273.817000, -365.743550) " x="268.533867" y="338.630491" width="10.566266" height="54.2261175"></rect>
                <rect id="Rectangle-path" x="318" y="269.13" width="10.53" height="73.68"></rect>
                <rect id="Rectangle-path" transform="translate(358.795000, 358.605000) rotate(90.000000) translate(-358.795000, -358.605000) " x="353.53" y="338.87" width="10.53" height="39.47"></rect>
                <rect id="Rectangle-path" transform="translate(436.045365, 277.032351) rotate(-60.000000) translate(-436.045365, -277.032351) " x="430.780365" y="250.717351" width="10.53" height="52.63"></rect>
                <rect id="Rectangle-path" x="394.32" y="271.76" width="10.53" height="52.63"></rect>
                <rect id="Rectangle-path" transform="translate(437.796650, 320.434950) rotate(-29.886527) translate(-437.796650, -320.434950) " x="411.391019" y="315.151817" width="52.8112614" height="10.566266"></rect>
            </g>
            <g id="circles" transform="translate(26.000000, 0.000000)" fill="#000000">
                <circle id="Oval" cx="39.1" cy="92.18" r="7.89"></circle>
                <circle id="Oval" cx="158.35" cy="7.97" r="7.89"></circle>
                <circle id="Oval" cx="128.58" cy="59.55" r="7.89"></circle>
                <circle id="Oval" cx="188.13" cy="59.55" r="7.89"></circle>
                <circle id="Oval" cx="230.23" cy="7.97" r="7.89"></circle>
                <circle id="Oval" cx="314.44" cy="92.18" r="7.89"></circle>
                <circle id="Oval" cx="346.02" cy="7.97" r="7.89"></circle>
                <circle id="Oval" cx="418.95" cy="50.08" r="7.89"></circle>
                <circle id="Oval" cx="346.02" cy="92.18" r="7.89"></circle>
                <circle id="Oval" cx="7.99" cy="342.18" r="7.89"></circle>
                <circle id="Oval" cx="60.62" cy="342.18" r="7.89"></circle>
                <circle id="Oval" cx="34.31" cy="285.75" r="7.89"></circle>
                <circle id="Oval" cx="100.1" cy="336.92" r="7.89"></circle>
                <circle id="Oval" cx="184.31" cy="336.92" r="7.89"></circle>
                <circle id="Oval" cx="142.2" cy="379.03" r="7.89"></circle>
                <circle id="Oval" cx="142.2" cy="294.82" r="7.89"></circle>
                <circle id="Oval" cx="269.69" cy="321.13" r="7.89"></circle>
                <circle id="Oval" cx="213.25" cy="347.45" r="7.89"></circle>
                <circle id="Oval" cx="213.25" cy="294.82" r="7.89"></circle>
                <circle id="Oval" cx="301.27" cy="360.61" r="7.89"></circle>
                <circle id="Oval" cx="377.58" cy="257.97" r="7.89"></circle>
                <circle id="Oval" cx="450.51" cy="300.08" r="7.89"></circle>
                <circle id="Oval" cx="377.58" cy="342.18" r="7.89"></circle>
            </g>
            <path d="M481.34,123.76 L481.34,134.29 L7.66,134.29 L7.66,123.76 L481.34,123.76 Z M300.34,244.82 L300.34,234.29 L188.65,234.29 L188.65,244.82 L300.34,244.82 Z M19.25,152.71 L469.75,152.71 L469.75,142.18 L19.25,142.18 L19.25,152.71 Z M37.71,171.13 L451.29,171.13 L451.29,160.61 L37.71,160.61 L37.71,171.13 Z M60.06,189.55 L428.94,189.55 L428.94,179 L60.06,179 L60.06,189.55 Z M88,208 L401.1,208 L401.1,197.45 L88,197.45 L88,208 Z M125.31,226.42 L363.74,226.42 L363.74,215.87 L125.26,215.87 L125.31,226.42 Z" id="Shape" fill="url(#linearGradient-1)"></path>
            <g id="horizons" transform="translate(0.000000, 117.000000)" fill="#FFFFFF">
                <rect id="h1" x="0" y="0" width="488" height="21"></rect>
                <rect id="h2" x="0" y="21" width="488" height="21"></rect>
                <rect id="h3" x="0" y="39" width="488" height="21"></rect>
                <rect id="h4" x="0" y="57" width="488" height="21"></rect>
                <rect id="h5" x="0" y="75" width="488" height="21"></rect>
                <rect id="h6" x="0" y="94" width="488" height="21"></rect>
                <rect id="h7" x="151" y="115" width="174" height="16"></rect>
            </g>
        </g>
    </g>
</svg>