<svg id="Layer_1" data-name="Layer 1" xmlns="http://www.w3.org/2000/svg" xmlns:xlink="http://www.w3.org/1999/xlink" viewBox="0 0 489 397">
<defs>
<style>.cls-1{fill:url(#linear-gradient);}</style>
<linearGradient id="linear-gradient" x1="244.5" y1="128.76" x2="244.5" y2="249.82" gradientUnits="userSpaceOnUse">
<stop offset="0" stop-color="#3bd23d"/>
<stop offset="0.09" stop-color="#34cc4d"/>
<stop offset="0.39" stop-color="#1eb784"/>
<stop offset="0.66" stop-color="#0ea8ac"/>
<stop offset="0.87" stop-color="#049fc4"/>
<stop offset="1" stop-color="#009ccd"/>
</linearGradient>
</defs>
<title>Land_World_Logo</title>
<g id="rects" class="rects">
  <rect x="59.84" y="7.71" width="10.53" height="73.68"/>
  <rect x="95.36" y="77.45" width="10.53" height="39.47" transform="translate(197.81 -3.44) rotate(90)"/>
  <rect x="155.48" y="33.5" width="27.97" height="10.53" transform="translate(51.16 166.14) rotate(-60)"/>
  <rect x="125.7" y="85.07" width="27.97" height="10.53" transform="translate(-8.39 166.14) rotate(-60)"/>
  <rect x="193.98" y="24.77" width="10.53" height="27.97" transform="translate(7.31 104.81) rotate(-30)"/>
  <rect x="223.75" y="76.35" width="10.53" height="27.97" transform="translate(-14.48 126.61) rotate(-30)"/>
  <rect x="170.36" y="59.28" width="27.97" height="10.53"/>
  <rect x="250.97" y="28.76" width="10.53" height="73.68"/>
  <rect x="293.08" y="11.32" width="10.53" height="87.51" transform="translate(48.43 227.09) rotate(-45)"/>
  <rect x="335.18" y="7.71" width="10.53" height="73.68"/>
  <rect x="403.22" y="7.71" width="10.53" height="52.63" transform="translate(174.78 370.77) rotate(-60)"/>
  <rect x="366.76" y="28.76" width="10.53" height="52.63"/>
  <rect x="382.17" y="70.87" width="52.63" height="10.53" transform="matrix(0.87, -0.5, 0.5, 0.87, 16.66, 214.44)"/>
  <rect x="68.2" y="303.62" width="10.53" height="30.69" transform="translate(-127.92 60.93) rotate(-25)"/>
  <rect x="31.8" y="313.7" width="30.69" height="10.53" transform="translate(-261.86 226.9) rotate(-65)"/>
  <rect x="14.53" y="255.11" width="10.53" height="78.15" transform="matrix(0.97, -0.26, 0.26, 0.97, -75.47, 15.15)"/>
  <rect x="61.75" y="288.92" width="78.15" height="10.53" transform="translate(-209.43 315.43) rotate(-75)"/>
  <rect x="141.89" y="348.99" width="10.53" height="27.97" transform="translate(-213.56 210.36) rotate(-45)"/>
  <rect x="141.89" y="306.89" width="10.53" height="27.97" transform="translate(269.99 -10.07) rotate(45)"/>
  <rect x="183.99" y="348.99" width="10.53" height="27.97" transform="translate(312.09 -27.51) rotate(45)"/>
  <rect x="183.99" y="306.89" width="10.53" height="27.97" transform="translate(-171.46 227.8) rotate(-45)"/>
  <rect x="252.13" y="334.03" width="30.69" height="10.53" transform="translate(-118.33 144.83) rotate(-25)"/>
  <rect x="262.21" y="297.63" width="10.53" height="30.69" transform="translate(-129.22 423.12) rotate(-65)"/>
  <rect x="233.99" y="315.61" width="10.53" height="21.05"/>
  <rect x="233.99" y="368.24" width="10.53" height="21.05"/>
  <rect x="271.07" y="346.83" width="10.53" height="54.04" transform="matrix(0.5, -0.87, 0.87, 0.5, -185.6, 426.23)"/>
  <rect x="322" y="276.13" width="10.53" height="73.68"/>
  <rect x="357.53" y="345.87" width="10.53" height="39.47" transform="translate(728.4 2.81) rotate(90)"/>
  <rect x="434.78" y="257.71" width="10.53" height="52.63" transform="translate(-25.95 523.11) rotate(-60)"/>
  <rect x="398.32" y="278.76" width="10.53" height="52.63"/>
  <rect x="413.73" y="320.87" width="52.63" height="10.53" transform="matrix(0.87, -0.5, 0.5, 0.87, -104.11, 263.72)"/>
</g>
<g id="circles" class="circles">
  <circle cx="65.1" cy="97.18" r="7.89"/>
  <circle cx="184.35" cy="12.97" r="7.89"/>
  <circle cx="154.58" cy="64.55" r="7.89"/>
  <circle cx="214.13" cy="64.55" r="7.89"/>
  <circle cx="256.23" cy="12.97" r="7.89"/>
  <circle cx="340.44" cy="97.18" r="7.89"/>
  <circle cx="372.02" cy="12.97" r="7.89"/>
  <circle cx="444.95" cy="55.08" r="7.89"/>
  <circle cx="372.02" cy="97.18" r="7.89"/>
  <circle cx="33.99" cy="347.18" r="7.89"/>
  <circle cx="86.62" cy="347.18" r="7.89"/>
  <circle cx="60.31" cy="290.75" r="7.89"/>
  <circle cx="126.1" cy="341.92" r="7.89"/>
  <circle cx="210.31" cy="341.92" r="7.89"/>
  <circle cx="168.2" cy="384.03" r="7.89"/>
  <circle cx="168.2" cy="299.82" r="7.89"/>
  <circle cx="295.69" cy="326.13" r="7.89"/>
  <circle cx="239.25" cy="352.45" r="7.89"/>
  <circle cx="239.25" cy="299.82" r="7.89"/>
  <circle cx="327.27" cy="365.61" r="7.89"/>
  <circle cx="403.58" cy="262.97" r="7.89"/>
  <circle cx="476.51" cy="305.08" r="7.89"/>
  <circle cx="403.58" cy="347.18" r="7.89"/>
</g>
<path class="cls-1" d="M481.34,128.76v10.53H7.66V128.76Zm-181,121.06V239.29H188.65v10.53ZM19.25,157.71h450.5V147.18H19.25Zm18.46,18.42H451.29V165.61H37.71Zm22.35,18.42H428.94V184H60.06ZM88,213h313.1V202.45H88Zm37.31,18.42H363.74V220.87H125.26Z"/>
</svg>
